<?xml version="1.0" encoding="utf-8"?>
<svg viewBox="124.1743 132.803 198.8364 188.8947" xmlns="http://www.w3.org/2000/svg">
  <defs>
    <linearGradient id="SvgjsLinearGradient1441">
      <stop id="SvgjsStop1442" stop-color="#8f5e25" offset="0"/>
      <stop id="SvgjsStop1443" stop-color="#fbf4a1" offset="0.5"/>
      <stop id="SvgjsStop1444" stop-color="#8f5e25" offset="1"/>
    </linearGradient>
  </defs>
  <g id="SvgjsG1437" featurekey="symbolFeature-0" transform="matrix(2.48545503616333, 0, 0, 2.48545503616333, 99.31974792480469, 102.97769165039062)" fill="url(#SvgjsLinearGradient1441)" style="">
    <g xmlns="http://www.w3.org/2000/svg" transform="translate(0,-952.36218)">
      <path d="m 60.7828,964.36215 27.1809,0.8834 -27.1809,25.9958 z m -1.9745,1.4513 0,26.7845 -25.2681,0 c 8.6166,-8.7334 16.8796,-17.8103 25.2681,-26.7845 z m 27.7053,3.628 3.4864,1.1989 -12.5877,7.4768 z m -68.1835,2.9656 5.5226,0 12.8654,14.0705 -5.9854,6.1204 -12.4026,0 c 9e-4,-6.7347 0,-13.4597 0,-20.1909 z m -1.9746,1.2304 0,5.8364 -6.3555,0 z m 3.363,20.9796 38.627,0 -10.7675,29.43465 z m 39.0898,4.54286 0,41.20229 -12.5878,-6.8775 c 4.1972,-11.443 8.3886,-22.879 12.5878,-34.32479 z" style="text-indent:0;text-transform:none;direction:ltr;block-progression:tb;baseline-shift:baseline;color:;enable-background:accumulate;" fill="url(#SvgjsLinearGradient1441)" fill-opacity="1" stroke="none" marker="none" visibility="visible" display="inline" overflow="visible"/>
    </g>
  </g>
</svg>